# xmcd CD database file
#
# Track frame offsets:
#	150
#	11622
#	22980
#	33135
#	44975
#	55805
#	67422
#	79242
#	101227
#	112680
#	127972
#	141562
#	152917
#	162270
#	180807
#
# Disc length: 2676 seconds
#
# Revision: 6
# Processed by: cddbd v1.5.2PL0 Copyright (c) Steve Scherf et al.
# Submitted via: CDex 1.51
#
DISCID=c80a720f
DTITLE=Various Artist - Treasury of Bluegrass Vol. 2 Disk 1
DYEAR=2001
DGENRE=Bluegrass
TTITLE0=Jimmy Martin - Hit Parade of Love
TTITLE1=Lester Flatt and Earl Scruggs - Old Salty Dog Blues
TTITLE2=The Stanley Brothers - She's More to Be Pitied
TTITLE3=Bill Monroe - A Voice from On High
TTITLE4=Jim Eanes - I Wouldn't Change You If I Could
TTITLE5=The Stanley Brothers - The Fields Have Turned Brown
TTITLE6=Bill Monroe - Rawhide
TTITLE7=The Nitty Gritty Dirt Band - Will the Circle Be Unbroken
TTITLE8=The Osborne Brothers - Tennessee Hound Dog
TTITLE9=Ricky Skaggs - Little Cabin Home on the Hill
TTITLE10=Jimmy Martin - Widow Maker
TTITLE11=The Bluegrass Album Band - On the Way Back to the Old Home
TTITLE12=The Dillards - Dooley
TTITLE13=Here Today - Lonesome River
TTITLE14=The Cox Family - When God Dips His Pen of Love in My Heart
EXTD=Time Life YEAR: 2001
EXTT0=
EXTT1=
EXTT2=
EXTT3=
EXTT4=
EXTT5=
EXTT6=
EXTT7=
EXTT8=
EXTT9=
EXTT10=
EXTT11=
EXTT12=
EXTT13=
EXTT14=
PLAYORDER=
